<!-- Brain image source: https://static.vecteezy.com/system/resources/previews/059/555/853/non_2x/black-silhouette-of-a-human-brain-vector.jpg -->

<svg version="1.1" id="Layer_1" xmlns="http://www.w3.org/2000/svg" xmlns:xlink="http://www.w3.org/1999/xlink" x="0px" y="0px"
	 width="100%" viewBox="60 90 380 325" enable-background="new 0 0 500 500" xml:space="preserve">

<path opacity="1.000000" stroke="none" 
	d="
M121.150581,129.094116 
	C123.816933,127.390846 126.320480,125.990440 128.338364,124.077667 
	C136.347473,116.485764 145.185822,110.550987 156.562103,109.802666 
	C161.639008,109.468704 166.778839,110.024666 171.844543,109.614220 
	C174.486115,109.400192 177.469528,108.551598 179.546631,106.989708 
	C196.669861,94.113846 214.998627,90.384537 235.745117,97.263184 
	C240.101944,98.707726 246.002655,96.358093 250.964584,94.953575 
	C265.812439,90.750816 280.812653,90.537941 293.686890,98.961021 
	C302.449280,104.693886 311.302917,105.863983 320.822937,106.518013 
	C335.318420,107.513870 346.261627,114.956970 356.006195,125.026817 
	C358.890991,128.007919 362.302460,131.029297 366.070709,132.509781 
	C381.930695,138.740906 393.435516,149.404694 399.507935,165.199188 
	C402.602020,173.247009 409.376099,177.523514 414.824677,183.114487 
	C421.258057,189.716019 424.885162,197.535889 426.794800,206.202881 
	C428.105621,212.152115 427.972412,218.422318 429.317963,224.360214 
	C430.365051,228.981155 432.667755,233.322845 434.464508,237.767593 
	C439.162506,249.389359 439.844818,261.182129 436.757355,273.377625 
	C435.757416,277.327271 436.474854,281.679474 435.854919,285.763794 
	C434.211304,296.591766 430.895752,306.589935 420.695557,312.657867 
	C413.481537,316.949463 406.515320,313.695343 399.480621,312.048370 
	C397.464111,311.576263 395.411072,311.260254 392.880096,310.778473 
	C393.652802,316.313812 394.667755,321.101379 394.856445,325.921265 
	C394.960236,328.571564 394.308105,331.675476 392.913452,333.893829 
	C380.801147,353.160095 365.391205,367.940125 341.173676,369.661591 
	C330.921417,370.390289 320.632172,370.613617 310.357391,371.004578 
	C304.216003,371.238312 303.595093,372.135590 305.975372,377.829773 
	C308.667725,384.270538 311.566620,390.635437 313.942932,397.190186 
	C314.504211,398.738373 313.977142,401.650879 312.830261,402.651550 
	C310.249969,404.902985 307.066589,406.551361 303.949982,408.081116 
	C297.917023,411.042236 292.152985,409.275024 288.707428,403.069916 
	C282.914612,392.637787 277.541870,381.973022 271.808105,371.507080 
	C270.244293,368.652679 268.145325,366.058746 266.079987,363.517517 
	C257.854218,353.396393 249.296783,343.534180 241.342834,333.205963 
	C234.694931,324.573639 229.199875,323.072174 218.870880,325.048584 
	C201.642685,328.345001 184.086807,332.060516 167.049850,323.963104 
	C157.375397,319.364929 148.344986,313.723145 144.761887,302.781128 
	C143.551804,299.085754 143.154175,295.000671 143.100281,291.083832 
	C143.041687,286.826477 141.740158,285.055908 137.459427,286.548157 
	C127.590202,289.988434 117.530251,289.467346 107.573380,287.443939 
	C97.409149,285.378296 89.963440,279.954742 86.217567,269.588440 
	C84.924370,266.009674 81.585159,262.687836 78.371704,260.370026 
	C65.402527,251.015594 63.051109,237.955917 64.436020,223.343857 
	C64.638741,221.204910 65.049629,218.988617 64.717415,216.911560 
	C62.228832,201.352417 65.263245,187.228729 75.309372,174.872238 
	C76.667564,173.201691 78.076935,171.112183 79.923622,170.380951 
	C87.021469,167.570511 89.105179,161.140121 91.636795,155.055481 
	C94.799011,147.455231 98.754379,140.346100 105.875351,135.944412 
	C110.477577,133.099655 115.777390,131.383453 121.150581,129.094116 
z"/>
</svg>